<svg width="236" height="47" viewBox="0 0 236 47" fill="none" xmlns="http://www.w3.org/2000/svg">
<path d="M6.07999 31.56C5.81332 31.56 5.54665 31.5466 5.27999 31.52C5.03999 31.52 4.81332 31.5066 4.59999 31.48C4.09332 31.4266 3.58665 31.28 3.07999 31.04C2.59999 30.8266 2.11999 30.5333 1.63999 30.16C0.599987 29.3066 0.0799866 28.3866 0.0799866 27.4C0.0799866 26.4133 0.559987 25.6666 1.51999 25.16C2.26665 24.7333 3.18665 24.52 4.27999 24.52C5.77332 24.52 7.85332 25.0666 10.52 26.16C11.5333 24.9866 12.4533 23.5866 13.28 21.96C14.1067 20.3333 14.8533 18.5066 15.52 16.48C16.6933 12.88 17.4133 9.30665 17.68 5.75998C12.5067 6.05331 8.63999 7.55998 6.07999 10.28C5.11999 11.32 4.63999 12.4266 4.63999 13.6C4.63999 15.6 5.71999 17.1066 7.87999 18.12C8.09332 18.2266 8.34665 18.32 8.63999 18.4C8.95999 18.48 9.33332 18.5733 9.75999 18.68C9.89332 18.7333 9.95999 18.7866 9.95999 18.84C9.95999 18.9733 9.86665 19.04 9.67999 19.04L9.59999 19C8.02665 18.8666 6.61332 18.2533 5.35999 17.16C3.97332 15.96 3.27999 14.6 3.27999 13.08C3.27999 11.9066 3.74665 10.84 4.67999 9.87998C7.50665 6.89331 11.8533 5.30665 17.72 5.11998C17.7467 4.74665 17.76 4.38665 17.76 4.03998C17.7867 3.69331 17.8 3.34665 17.8 2.99998C17.8 2.86665 17.8 2.71998 17.8 2.55998C17.8 2.37331 17.7867 2.14665 17.76 1.87998C17.7333 1.63998 17.72 1.42665 17.72 1.23998C17.72 1.05331 17.72 0.906646 17.72 0.799981C17.72 0.613314 17.7733 0.51998 17.88 0.51998C17.9067 0.51998 17.9467 0.586647 18 0.71998C18.1867 1.86665 18.2667 3.33331 18.24 5.11998C20.2667 5.09331 22.2267 5.27998 24.12 5.67998C26.0133 3.22665 27.9467 1.99998 29.92 1.99998C30.3467 1.99998 30.7467 2.05331 31.12 2.15998C31.52 2.26665 31.8933 2.42665 32.24 2.63998C32.9333 3.06665 33.4267 3.66665 33.72 4.43998C33.8267 4.75998 33.88 5.07998 33.88 5.39998C33.88 5.50665 33.8533 5.55998 33.8 5.55998C33.6667 5.55998 33.56 5.38665 33.48 5.03998C33.32 4.47998 32.88 3.99998 32.16 3.59998C31.4667 3.25331 30.8133 3.07998 30.2 3.07998C28.5467 3.07998 27.0133 4.01331 25.6 5.87998C27.12 6.11998 28.52 6.54665 29.8 7.15998C31.1067 7.74665 32.28 8.50665 33.32 9.43998C35.6933 11.5733 36.88 14.08 36.88 16.96C36.88 18.8266 36.4667 20.6533 35.64 22.44C34.4667 24.92 32.76 26.8266 30.52 28.16C28.2267 29.4933 25.68 30.16 22.88 30.16C20.0533 30.16 17 29.4933 13.72 28.16C11.9333 30.4266 9.38665 31.56 6.07999 31.56ZM12.52 26.96C12.9733 26.5066 13.4667 25.84 14 24.96C14.5333 24.08 15.0933 23.0133 15.68 21.76C16.3467 20.4 16.9733 19.04 17.56 17.68C18.1733 16.2933 18.7867 14.92 19.4 13.56C21.1067 9.85331 22.56 7.38665 23.76 6.15998C23.0133 6.02665 22.24 5.91998 21.44 5.83998C20.6667 5.75998 19.8667 5.71998 19.04 5.71998H18.2C18.0133 9.26665 17.3333 12.9066 16.16 16.64C14.8267 20.7733 13.16 24.04 11.16 26.44L12.52 26.96ZM22.48 29.52C26 29.52 28.8933 28.3733 31.16 26.08C33.4533 23.7866 34.6 20.8933 34.6 17.4C34.6 14.7866 33.6933 12.4133 31.88 10.28C30.0933 8.17331 27.8933 6.87998 25.28 6.39998C24.88 7.01331 24.4133 7.82665 23.88 8.83998C23.3467 9.82665 22.7733 11.0266 22.16 12.44C21.7067 13.48 21.1333 14.7733 20.44 16.32C19.7733 17.84 18.9333 19.5866 17.92 21.56C17.2533 22.92 16.6 24.1066 15.96 25.12C15.3467 26.1066 14.7333 26.9466 14.12 27.64C15.6133 28.28 17.0533 28.7466 18.44 29.04C19.8533 29.36 21.2 29.52 22.48 29.52ZM5.35999 30.68C6.61332 30.68 7.87999 30.4 9.15999 29.84C10.6 29.1733 11.6133 28.4 12.2 27.52C11.7467 27.28 11.2933 27.0533 10.84 26.84C8.91999 29 6.91999 30.08 4.83999 30.08C4.33332 30.08 4.07999 29.9866 4.07999 29.8C4.07999 29.6666 4.30665 29.6 4.75999 29.6C6.59999 29.6 8.42665 28.5866 10.24 26.56C7.75999 25.44 5.69332 24.88 4.03999 24.88C3.61332 24.88 3.21332 24.9333 2.83999 25.04C2.49332 25.12 2.17332 25.2266 1.87999 25.36C1.10665 25.76 0.719987 26.3466 0.719987 27.12C0.719987 28.1333 1.25332 29 2.31999 29.72C3.27999 30.36 4.29332 30.68 5.35999 30.68Z" fill="#013E53"/>
<path d="M41.4237 28.76C39.5304 28.76 38.5837 27.5333 38.5837 25.08C38.5837 24.7066 38.5971 24.3066 38.6237 23.88C38.6771 23.4266 38.7571 22.9466 38.8637 22.44C38.7571 22.36 38.6504 22.2533 38.5437 22.12C38.4371 21.96 38.3304 21.7733 38.2237 21.56C38.3304 21.5866 38.4371 21.64 38.5437 21.72C38.6771 21.7733 38.8371 21.8266 39.0237 21.88C39.3171 20.5466 40.1171 19.2266 41.4237 17.92C42.8371 16.48 44.1704 15.76 45.4237 15.76C45.7171 15.76 45.8637 15.8 45.8637 15.88C45.8637 15.9333 45.6771 16.0666 45.3037 16.28C44.3171 16.8133 43.3971 17.64 42.5437 18.76C41.6371 19.88 40.9837 21 40.5837 22.12C40.6104 22.1466 40.6237 22.16 40.6237 22.16C40.6237 22.16 40.6371 22.1733 40.6637 22.2C41.9437 22.2 43.2771 21.5866 44.6637 20.36C46.0504 19.1333 46.7437 17.88 46.7437 16.6C46.7437 16.2266 46.6371 15.8666 46.4237 15.52C46.2371 15.2 45.9437 15.04 45.5437 15.04C45.0371 15.04 44.4371 15.24 43.7437 15.64C43.0771 16.0666 42.7037 16.28 42.6237 16.28C42.5704 16.28 42.5437 16.2666 42.5437 16.24C42.5437 15.92 43.0104 15.5733 43.9437 15.2C44.7437 14.88 45.3704 14.72 45.8237 14.72C46.4637 14.72 46.9704 14.8933 47.3437 15.24C47.7704 15.5866 47.9837 16.0666 47.9837 16.68C47.9837 18.0933 47.0637 19.4666 45.2237 20.8C43.5704 21.9733 41.9704 22.6266 40.4237 22.76C40.2104 23.4 40.1037 24.0133 40.1037 24.6C40.1037 26.8133 40.9037 27.92 42.5037 27.92C43.7304 27.92 45.0104 27.3866 46.3437 26.32C47.4637 25.44 48.3971 24.3733 49.1437 23.12C49.3837 22.7466 49.5837 22.56 49.7437 22.56C49.7704 22.56 49.7837 22.5866 49.7837 22.64C49.7837 22.7466 49.6771 22.9866 49.4637 23.36C48.6371 24.6666 47.4771 25.8666 45.9837 26.96C44.3571 28.16 42.8371 28.76 41.4237 28.76Z" fill="#013E53"/>
<path d="M53.8606 28.48C52.6073 28.48 51.4739 27.96 50.4606 26.92C49.4739 25.8533 48.9806 24.6933 48.9806 23.44C48.9806 22.6133 49.1939 22.2 49.6206 22.2C49.8873 22.2 50.1539 22.4 50.4206 22.8C51.2206 20.9333 52.3539 18.8266 53.8206 16.48C54.7539 15.04 55.8473 14.32 57.1006 14.32C57.3673 14.32 57.6739 14.4133 58.0206 14.6C58.3939 14.8133 58.5806 15.04 58.5806 15.28C58.5806 15.4666 58.4073 15.56 58.0606 15.56C58.0339 15.56 57.9939 15.56 57.9406 15.56C57.8873 15.56 57.8206 15.5466 57.7406 15.52H57.4206C56.8073 15.52 56.2873 15.6933 55.8606 16.04C55.4073 16.4133 55.1806 16.88 55.1806 17.44C55.1806 17.6533 55.2206 17.88 55.3006 18.12C55.4606 18.6533 55.6206 19.1866 55.7806 19.72C55.9406 20.2533 56.1006 20.7866 56.2606 21.32C56.4473 21.96 56.5806 22.56 56.6606 23.12C56.7673 23.6533 56.8206 24.1466 56.8206 24.6C57.5406 24.4933 58.1539 24.2266 58.6606 23.8C58.9806 23.5333 59.4073 23 59.9406 22.2C60.0206 22.0933 60.1006 22.04 60.1806 22.04C60.2606 22.04 60.3006 22.0933 60.3006 22.2C60.3006 22.3066 60.2739 22.4 60.2206 22.48C59.3139 24 58.1939 24.8933 56.8606 25.16C56.7806 26.0933 56.5006 26.8666 56.0206 27.48C55.5139 28.1466 54.7939 28.48 53.8606 28.48ZM55.1806 25.12C55.2073 25.0133 55.2206 24.92 55.2206 24.84C55.2206 24.76 55.2206 24.6666 55.2206 24.56C55.2206 24.2133 55.1539 23.7466 55.0206 23.16C54.9139 22.5466 54.7539 21.8 54.5406 20.92C54.1406 19.24 53.9939 18.12 54.1006 17.56C53.4073 18.28 52.2739 20.2 50.7006 23.32C51.2073 23.5866 51.6339 23.8266 51.9806 24.04C52.3539 24.2266 52.6473 24.3733 52.8606 24.48C53.6606 24.8533 54.4339 25.0666 55.1806 25.12ZM53.0206 27.16C54.0873 27.16 54.7939 26.64 55.1406 25.6C53.0073 25.6 51.3806 25.16 50.2606 24.28C50.3139 24.8933 50.6339 25.52 51.2206 26.16C51.8073 26.8266 52.4073 27.16 53.0206 27.16Z" fill="#013E53"/>
<path d="M64.5369 14.52C64.0035 14.52 63.7369 14.24 63.7369 13.68C63.7369 13.3866 63.8969 13.0666 64.2169 12.72C64.4035 12.5066 64.5635 12.3333 64.6969 12.2C64.8569 12.0666 65.0035 11.9733 65.1369 11.92C66.0969 11.4666 66.6702 11.24 66.8569 11.24C66.9369 11.24 66.9769 11.2666 66.9769 11.32C66.9769 11.4 66.6702 11.7866 66.0569 12.48C66.0302 12.5066 65.9769 12.6266 65.8969 12.84C65.8169 13.0266 65.6702 13.32 65.4569 13.72C65.2169 14.2533 64.9102 14.52 64.5369 14.52ZM62.1369 27.36C60.7769 27.36 60.0969 26.68 60.0969 25.32C60.0969 24.3066 60.3635 23.0266 60.8969 21.48C60.7902 21.6666 60.6702 21.8533 60.5369 22.04C60.4302 22.2266 60.3102 22.4133 60.1769 22.6C59.8302 23.1866 59.5902 23.48 59.4569 23.48C59.4035 23.48 59.3769 23.44 59.3769 23.36C59.3769 23.1466 59.4569 22.9466 59.6169 22.76C60.2569 21.88 60.9635 20.6133 61.7369 18.96C61.8169 18.7466 61.9235 18.48 62.0569 18.16C62.2169 17.84 62.4035 17.48 62.6169 17.08C62.7502 16.84 63.0835 16.72 63.6169 16.72C64.0702 16.72 64.2969 16.8533 64.2969 17.12C64.2969 17.3866 64.1769 17.7866 63.9369 18.32C63.6435 18.8533 63.4035 19.16 63.2169 19.24C61.8302 22.0133 61.1369 24.0533 61.1369 25.36C61.1369 26.24 61.4302 26.68 62.0169 26.68C62.9769 26.68 64.0302 25.9866 65.1769 24.6C66.3769 23.2133 66.9635 22.52 66.9369 22.52C66.9902 22.52 67.0169 22.56 67.0169 22.64C67.0169 22.6666 66.9902 22.76 66.9369 22.92C66.6969 23.3466 66.3902 23.7866 66.0169 24.24C65.6702 24.6666 65.2702 25.12 64.8169 25.6C63.6435 26.7733 62.7502 27.36 62.1369 27.36Z" fill="#013E53"/>
<path d="M60.01 46.16C55.0766 46.16 52.61 44.68 52.61 41.72C52.61 41.5333 52.6233 41.3466 52.65 41.16C52.65 41 52.6633 40.8266 52.69 40.64C52.77 40.1333 52.9967 39.5733 53.37 38.96C53.7433 38.3466 54.2366 37.68 54.85 36.96C58.9567 32.16 64.9967 29.6666 72.97 29.48L71.65 26.16C70.3433 27.28 69.1566 27.84 68.09 27.84C67.13 27.84 66.65 27.32 66.65 26.28C66.65 24.3333 67.7433 22.1733 69.93 19.8C69.9033 19.56 69.8766 19.3333 69.85 19.12C69.85 18.88 69.85 18.6533 69.85 18.44C69.85 16.8133 70.1566 15.4133 70.77 14.24C71.5433 12.7466 72.6633 12 74.13 12C74.29 12 74.4367 12.0133 74.57 12.04C74.73 12.04 74.8767 12.0533 75.01 12.08C75.6233 12.2133 76.09 12.7066 76.41 13.56C76.7033 14.36 76.81 15.08 76.73 15.72C78.33 14.76 79.13 13.6 79.13 12.24C79.13 11.76 79.1833 11.52 79.29 11.52C79.5567 11.52 79.69 11.9866 79.69 12.92C79.69 14.7066 78.6767 16.08 76.65 17.04C76.49 18.4266 75.9966 19.9466 75.17 21.6C74.29 23.3866 73.3567 24.68 72.37 25.48C72.6367 25.9066 72.9433 26.4533 73.29 27.12C73.6633 27.7866 74.09 28.5733 74.57 29.48C76.7033 29.5066 78.3433 29.6266 79.49 29.84C79.9166 29.92 80.13 30.0266 80.13 30.16C80.13 30.3466 79.9166 30.44 79.49 30.44C79.01 30.44 78.2633 30.4 77.25 30.32C76.7433 30.2666 76.29 30.2266 75.89 30.2C75.5167 30.1733 75.1967 30.16 74.93 30.16C75.8367 31.9733 76.29 33.5466 76.29 34.88C76.29 38.0533 74.29 40.8 70.29 43.12C66.8233 45.1467 63.3966 46.16 60.01 46.16ZM70.53 19.36C70.7967 19.0933 71.1033 18.8266 71.45 18.56C71.8233 18.2933 72.2367 18.0266 72.69 17.76C73.09 17.52 73.49 17.2933 73.89 17.08C74.29 16.84 74.6767 16.6133 75.05 16.4C75.0767 16.1866 75.09 15.9733 75.09 15.76C75.1167 15.5466 75.13 15.3466 75.13 15.16C75.13 13.5866 74.7567 12.8 74.01 12.8C73.37 12.8 72.7167 13.2933 72.05 14.28C71.5167 15.0533 71.13 15.8266 70.89 16.6C70.6233 17.3733 70.49 18.1466 70.49 18.92C70.49 19.1333 70.5033 19.28 70.53 19.36ZM72.05 24.8C72.37 24.5066 72.69 24.08 73.01 23.52C73.3567 22.9333 73.69 22.2266 74.01 21.4C74.33 20.6 74.5567 19.88 74.69 19.24C74.85 18.6 74.93 18.04 74.93 17.56C72.9833 18.4666 71.53 19.36 70.57 20.24C70.6767 20.9333 70.85 21.6666 71.09 22.44C71.3567 23.1866 71.6767 23.9733 72.05 24.8ZM68.53 26.48C69.5167 26.48 70.4633 26.12 71.37 25.4C70.9167 24.28 70.6367 23.5466 70.53 23.2C70.3967 22.7466 70.29 22.3333 70.21 21.96C70.13 21.5866 70.0633 21.2266 70.01 20.88C68.5167 22.8533 67.77 24.3333 67.77 25.32C67.77 26.0933 68.0233 26.48 68.53 26.48ZM59.97 45.56C62.8767 45.56 65.9433 44.4 69.17 42.08C72.6366 39.6 74.37 36.9733 74.37 34.2C74.37 33.3733 73.9967 32.04 73.25 30.2C71.1433 30.3066 69.17 30.5466 67.33 30.92C65.5167 31.32 63.8233 31.8533 62.25 32.52C58.25 34.2266 55.6233 36.7333 54.37 40.04C54.1833 40.4933 54.09 40.9466 54.09 41.4C54.09 42.7066 54.77 43.76 56.13 44.56C57.2766 45.2266 58.5567 45.56 59.97 45.56Z" fill="#013E53"/>
<path d="M79.2587 28.84C79.0187 28.84 78.8987 28.6666 78.8987 28.32V28.24C79.0054 27.8666 79.1121 27.4 79.2187 26.84C79.3521 26.28 79.4987 25.6266 79.6587 24.88C79.8187 24.1333 80.0187 23.2 80.2587 22.08C80.4987 20.9333 80.7921 19.6133 81.1387 18.12C81.1121 18.0666 81.0587 17.9466 80.9787 17.76C80.9254 17.5466 80.8321 17.28 80.6987 16.96C80.5654 16.6133 80.4587 16.36 80.3787 16.2C80.2987 16.04 80.2587 15.96 80.2587 15.96C80.2587 15.7733 80.4854 15.6 80.9387 15.44C82.2721 14.9333 83.1254 14.68 83.4987 14.68C83.8987 14.68 84.0987 14.8 84.0987 15.04C84.0721 14.96 83.3921 16.6666 82.0587 20.16V20.52C82.0587 21.2666 81.9387 21.64 81.6987 21.64C81.6721 21.64 81.6321 21.6 81.5787 21.52C81.3654 22.1866 81.1521 22.8266 80.9387 23.44C80.7521 24.0266 80.5787 24.6133 80.4187 25.2C81.0054 24.24 81.6054 23.32 82.2187 22.44C82.8587 21.56 83.5121 20.7333 84.1787 19.96C86.1787 17.64 87.8321 16.48 89.1387 16.48C89.7521 16.48 90.0587 16.72 90.0587 17.2C90.0587 17.36 90.0187 17.56 89.9387 17.8C89.6987 18.7066 89.3921 19.8533 89.0187 21.24C88.6721 22.6 88.2454 24.1866 87.7387 26C89.2854 24.8533 90.4854 23.6266 91.3387 22.32C91.4721 22.16 91.5654 22.08 91.6187 22.08C91.6987 22.08 91.7387 22.1333 91.7387 22.24C91.7387 22.2933 91.6987 22.3866 91.6187 22.52C90.4454 24.6 89.0187 26.2533 87.3387 27.48C87.2321 27.64 87.0587 27.72 86.8187 27.72C86.6321 27.72 86.5387 27.6133 86.5387 27.4C86.5387 27.3466 86.5654 27.1066 86.6187 26.68C86.6987 26.2266 86.8187 25.6 86.9787 24.8C87.1121 24.2133 87.2321 23.64 87.3387 23.08C87.4454 22.52 87.5521 21.9466 87.6587 21.36C87.7921 20.6933 87.8721 20.08 87.8987 19.52C87.9521 18.9333 87.9921 18.4 88.0187 17.92C87.4321 18.1866 86.7921 18.6266 86.0987 19.24C85.4321 19.8266 84.6854 20.5733 83.8587 21.48C82.3387 23.16 81.2454 24.6266 80.5787 25.88C80.2054 26.6 79.9254 27.3733 79.7387 28.2C79.6321 28.6266 79.4721 28.84 79.2587 28.84ZM81.3787 17.04L81.7387 15.72C81.6054 15.8266 81.3521 15.96 80.9787 16.12C81.0587 16.28 81.1254 16.44 81.1787 16.6C81.2587 16.76 81.3254 16.9066 81.3787 17.04Z" fill="#013E53"/>
<path d="M99.244 30.2C99.0574 30.2 98.9641 29.9733 98.9641 29.52C98.9641 29.2266 99.004 28.8666 99.084 28.44C98.4707 28.0666 98.164 27.6 98.164 27.04C98.164 26.16 98.8707 25.2933 100.284 24.44C100.497 23.8 100.737 23.1066 101.004 22.36C101.271 21.6133 101.577 20.8266 101.924 20C101.684 20.24 101.417 20.52 101.124 20.84C100.831 21.16 100.497 21.5333 100.124 21.96C99.9907 22.0933 99.884 22.16 99.804 22.16C99.724 22.16 99.684 22.1066 99.684 22C99.684 21.5733 100.577 20.5466 102.364 18.92C103.511 16.0933 104.657 13.36 105.804 10.72C106.951 8.07998 108.124 5.51998 109.324 3.03998C109.431 2.82665 109.564 2.57331 109.724 2.27998C109.884 1.95998 110.071 1.58665 110.284 1.15998C110.577 0.706647 111.124 0.47998 111.924 0.47998C112.431 0.47998 112.684 0.599981 112.684 0.839981C112.684 0.866647 112.657 0.933314 112.604 1.03998C110.977 4.18665 109.497 7.09331 108.164 9.75998C106.831 12.4266 105.657 14.8533 104.644 17.04C106.777 15.52 108.457 14.76 109.684 14.76C110.964 14.76 111.604 15.64 111.604 17.4C111.604 18.92 111.124 20.56 110.164 22.32C110.911 22.3466 111.284 22.48 111.284 22.72C111.284 22.8266 111.204 22.88 111.044 22.88C110.991 22.88 110.911 22.88 110.804 22.88C110.697 22.88 110.577 22.8666 110.444 22.84C110.311 22.8133 110.191 22.8 110.084 22.8C110.004 22.8 109.937 22.8 109.884 22.8C108.871 24.4533 107.631 25.84 106.164 26.96C104.457 28.24 102.751 28.88 101.044 28.88C100.511 28.88 100.071 28.8266 99.724 28.72C99.6974 28.8533 99.6707 28.9866 99.6441 29.12C99.6441 29.28 99.6307 29.4266 99.604 29.56C99.524 29.9866 99.404 30.2 99.244 30.2ZM101.604 23.76C103.657 22.9066 106.017 22.4133 108.684 22.28C109.084 21.16 109.284 19.8 109.284 18.2C109.284 16.8666 108.831 16.2 107.924 16.2C106.991 16.2 105.737 16.8133 104.164 18.04C103.657 19.1333 103.191 20.16 102.764 21.12C102.337 22.08 101.951 22.96 101.604 23.76ZM100.884 28.12C102.431 28.12 103.924 27.6 105.364 26.56C106.831 25.4933 107.857 24.24 108.444 22.8C105.831 23.0133 103.364 23.76 101.044 25.04C100.804 25.6533 100.591 26.2133 100.404 26.72C100.217 27.2266 100.057 27.6666 99.924 28.04C100.057 28.0666 100.204 28.08 100.364 28.08C100.524 28.1066 100.697 28.12 100.884 28.12ZM99.284 27.68C99.3374 27.4133 99.404 27.1466 99.484 26.88C99.564 26.5866 99.6574 26.2666 99.764 25.92C99.284 26.3466 99.044 26.76 99.044 27.16C99.044 27.3466 99.1241 27.52 99.284 27.68Z" fill="#013E53"/>
<path d="M106.786 44.32C105.293 44.32 103.733 43.7066 102.106 42.48C100.479 41.2533 99.6659 39.9733 99.6659 38.64C99.6659 38.5333 99.7059 38.48 99.7859 38.48C99.8393 38.48 99.9059 38.56 99.9859 38.72C101.106 41.52 103.133 42.92 106.066 42.92C107.559 42.92 108.946 42.56 110.226 41.84C112.706 40.4533 114.639 38.28 116.026 35.32C116.453 34.3866 116.866 33.2 117.266 31.76C117.693 30.3466 118.093 28.68 118.466 26.76C118.626 25.9066 118.826 24.84 119.066 23.56C119.306 22.28 119.653 20.8 120.106 19.12L120.786 16.64C119.106 17.9466 117.093 21.6933 114.746 27.88C114.746 27.9333 114.693 27.96 114.586 27.96C114.373 27.96 114.173 27.8666 113.986 27.68C113.773 27.4666 113.666 27.2666 113.666 27.08C113.666 27.08 113.773 26.8 113.986 26.24C114.226 25.7066 114.346 25.4266 114.346 25.4C114.853 23.9066 115.106 21.72 115.106 18.84C115.106 16.6533 114.639 15.56 113.706 15.56C113.199 15.56 112.573 15.8933 111.826 16.56C111.079 17.2533 110.706 17.6 110.706 17.6C110.626 17.6 110.586 17.5466 110.586 17.44C110.586 17.4133 110.613 17.32 110.666 17.16C111.039 16.5733 111.639 15.9866 112.466 15.4C113.346 14.76 114.079 14.44 114.666 14.44C115.786 14.44 116.346 15.52 116.346 17.68C116.346 19.44 115.986 21.3866 115.266 23.52C117.479 19.44 119.359 17 120.906 16.2C121.306 14.76 121.759 13.7466 122.266 13.16C122.933 12.3333 123.919 11.92 125.226 11.92C125.706 11.92 125.946 12 125.946 12.16C125.946 12.24 125.879 12.3066 125.746 12.36C125.399 12.44 125.093 12.5466 124.826 12.68C123.626 13.5333 122.586 15.8133 121.706 19.52C121.066 22.2133 120.573 24.2933 120.226 25.76C119.879 27.2 119.679 28.0266 119.626 28.24C119.119 30.0266 118.586 31.6533 118.026 33.12C117.493 34.5866 116.906 35.8933 116.266 37.04C114.639 39.9466 112.639 42.0666 110.266 43.4C109.173 44.0133 108.013 44.32 106.786 44.32Z" fill="#013E53"/>
<path d="M155.841 31.36C155.787 31.36 155.761 31.3066 155.761 31.2C155.761 30.96 155.867 30.8133 156.081 30.76C156.374 30.3066 156.521 29.5066 156.521 28.36C156.521 27.72 156.454 26.88 156.321 25.84C156.214 24.7733 156.014 23.5066 155.721 22.04C155.534 20.9466 155.387 19.84 155.281 18.72C155.201 17.6 155.161 16.48 155.161 15.36C155.161 14.32 155.227 13.2666 155.361 12.2C155.494 11.1333 155.681 10.0666 155.921 8.99998C156.641 5.85331 157.721 4.27998 159.161 4.27998C159.214 4.27998 159.241 4.30665 159.241 4.35998C159.241 4.43998 159.174 4.51998 159.041 4.59998C157.787 5.23998 157.161 7.41331 157.161 11.12C157.161 13.8666 157.521 17.52 158.241 22.08C158.321 22.56 158.361 23.0666 158.361 23.6C158.361 26.32 157.761 28.6266 156.561 30.52C157.174 30.1466 158.014 29.2266 159.081 27.76C160.147 26.2666 161.454 24.2266 163.001 21.64C163.854 20.1466 164.614 18.88 165.281 17.84C165.947 16.7733 166.494 15.9066 166.921 15.24C167.694 14.0666 168.427 12.9733 169.121 11.96C169.841 10.9466 170.547 9.99998 171.241 9.11998C171.641 7.51998 171.881 6.71998 171.961 6.71998C172.041 6.71998 172.081 6.83998 172.081 7.07998C172.081 7.10665 172.067 7.22665 172.041 7.43998C172.014 7.65331 171.974 7.93331 171.921 8.27998C173.387 6.51998 174.921 4.99998 176.521 3.71998C178.734 1.90665 180.601 0.999981 182.121 0.999981C183.054 0.999981 183.814 1.34665 184.401 2.03998C184.881 2.67998 185.121 3.50665 185.121 4.51998C185.121 4.67998 185.107 4.89331 185.081 5.15998C185.054 5.42665 185.014 5.71998 184.961 6.03998C184.801 6.86665 184.641 7.30665 184.481 7.35998C184.454 7.33331 184.441 7.29331 184.441 7.23998C184.441 7.15998 184.454 7.03998 184.481 6.87998C184.507 6.71998 184.547 6.53331 184.601 6.31998C184.654 6.07998 184.694 5.87998 184.721 5.71998C184.774 5.53331 184.801 5.37331 184.801 5.23998C184.801 3.45331 183.867 2.55998 182.001 2.55998C179.094 2.55998 175.654 4.98665 171.681 9.83998C171.227 12.88 170.881 15.48 170.641 17.64C170.401 19.8 170.281 21.52 170.281 22.8C170.281 26.8 171.027 28.8 172.521 28.8C173.747 28.8 175.294 27.32 177.161 24.36C177.267 24.2 177.387 24.0133 177.521 23.8C177.681 23.56 177.854 23.28 178.041 22.96C178.147 22.7733 178.241 22.68 178.321 22.68C178.374 22.7333 178.401 22.7733 178.401 22.8C178.401 22.9066 178.361 23 178.281 23.08C176.147 27.2133 174.134 29.28 172.241 29.28C169.601 29.28 168.281 27.4 168.281 23.64C168.281 21.0266 169.081 16.84 170.681 11.08C169.987 11.9866 169.241 13.0266 168.441 14.2C167.667 15.3733 166.814 16.68 165.881 18.12C164.467 20.3333 163.387 22.0533 162.641 23.28C161.894 24.48 161.454 25.16 161.321 25.32C160.574 26.4666 159.867 27.44 159.201 28.24C158.561 29.04 157.974 29.6933 157.441 30.2C156.614 30.9733 156.081 31.36 155.841 31.36ZM134.721 33.48C133.734 33.48 132.934 33.2 132.321 32.64C131.707 32.08 131.401 31.3066 131.401 30.32C131.401 29.2266 131.827 28.0933 132.681 26.92C132.761 26.84 132.814 26.8 132.841 26.8C132.921 26.8 132.961 26.8533 132.961 26.96C132.961 26.96 132.921 27.0533 132.841 27.24C132.787 27.4 132.707 27.64 132.601 27.96C132.307 28.6266 132.161 29.2266 132.161 29.76C132.161 30.5866 132.401 31.3066 132.881 31.92C133.414 32.56 134.094 32.88 134.921 32.88C138.067 32.88 141.241 31.32 144.441 28.2C145.854 26.8133 147.134 25.2666 148.281 23.56C149.454 21.8266 150.534 19.92 151.521 17.84C153.387 13.8133 154.321 10.32 154.321 7.35998C154.321 7.22665 154.321 7.10665 154.321 6.99998C154.321 6.89331 154.307 6.78665 154.281 6.67998C153.907 6.86665 153.441 6.99998 152.881 7.07998C152.694 8.51998 152.374 9.98665 151.921 11.48C151.494 12.9466 150.947 14.4533 150.281 16C149.694 17.4666 149.027 18.8933 148.281 20.28C147.534 21.6666 146.694 23.0133 145.761 24.32C143.574 27.44 141.374 29.64 139.161 30.92C138.547 31.2666 137.961 31.5333 137.401 31.72C136.867 31.9333 136.361 32.04 135.881 32.04C135.614 32.04 135.481 31.9333 135.481 31.72C135.481 31.5333 135.601 31.44 135.841 31.44C136.054 31.4133 136.307 31.36 136.601 31.28C136.894 31.2 137.254 31.1066 137.681 31C138.961 30.52 140.227 29.72 141.481 28.6C142.734 27.48 143.987 26.0533 145.241 24.32C147.241 21.5466 148.881 18.52 150.161 15.24C150.667 13.88 151.094 12.5333 151.441 11.2C151.814 9.86665 152.107 8.53331 152.321 7.19998C151.947 7.25331 151.347 7.34665 150.521 7.47998C149.694 7.58665 148.654 7.70665 147.401 7.83998C145.827 7.99998 144.481 8.15998 143.361 8.31998C142.241 8.47998 141.374 8.62665 140.761 8.75998C137.614 9.55998 136.041 10.76 136.041 12.36C136.041 13.5866 136.627 14.7733 137.801 15.92C138.867 16.96 140.041 17.64 141.321 17.96C141.481 17.9866 141.561 18.0266 141.561 18.08C141.561 18.1866 141.454 18.24 141.241 18.24C139.774 18.24 138.441 17.6266 137.241 16.4C136.014 15.1733 135.401 13.8266 135.401 12.36C135.401 10.7066 136.601 9.34665 139.001 8.27998C139.881 7.87998 140.934 7.50665 142.161 7.15998C143.414 6.81331 144.827 6.51998 146.401 6.27998C147.414 6.09331 148.427 5.93331 149.441 5.79998C150.481 5.63998 151.521 5.49331 152.561 5.35998C152.587 4.98665 152.601 4.47998 152.601 3.83998C152.627 3.17331 152.641 2.39998 152.641 1.51998C152.641 1.30665 152.734 1.19998 152.921 1.19998C153.001 1.19998 153.041 1.26665 153.041 1.39998C153.121 2.03998 153.161 2.75998 153.161 3.55998C153.161 3.82665 153.147 4.10665 153.121 4.39998C153.121 4.69331 153.107 4.98665 153.081 5.27998C153.321 5.22665 153.547 5.17331 153.761 5.11998C153.974 5.06665 154.147 5.01331 154.281 4.95998C154.467 4.77331 154.654 4.67998 154.841 4.67998C155.081 4.67998 155.241 4.82665 155.321 5.11998C155.401 5.54665 155.441 6.19998 155.441 7.07998C155.441 10.9466 154.227 15.1466 151.801 19.68C150.654 21.7866 149.401 23.7066 148.041 25.44C146.681 27.1466 145.187 28.64 143.561 29.92C140.627 32.2933 137.681 33.48 134.721 33.48Z" fill="#013E53"/>
<path d="M180.056 28.28C179.016 28.28 178.496 27.6133 178.496 26.28C178.496 24.6533 179.11 22.9866 180.336 21.28C179.91 20.24 179.696 19.1333 179.696 17.96C179.696 16.8133 179.923 15.8133 180.376 14.96C181.256 13.28 182.35 12.44 183.656 12.44C185.31 12.44 186.27 13.8533 186.536 16.68C187.87 16.7333 188.536 17.4266 188.536 18.76C188.536 19.8533 188.363 20.4 188.016 20.4C187.91 20.4 187.856 20.32 187.856 20.16C187.856 20.1066 187.856 20.0533 187.856 20C187.883 19.9466 187.91 19.88 187.936 19.8C187.936 19.6933 187.936 19.6133 187.936 19.56C187.963 19.48 187.976 19.4266 187.976 19.4C187.976 18.9733 187.843 18.6266 187.576 18.36C187.283 18.0666 186.95 17.92 186.576 17.92C186.256 21.1733 185.47 23.6666 184.216 25.4H185.456C185.11 25.6133 184.803 25.72 184.536 25.72C184.456 25.72 184.39 25.7066 184.336 25.68C184.256 25.6533 184.176 25.64 184.096 25.64C184.203 25.64 183.736 26.08 182.696 26.96C181.656 27.84 180.776 28.28 180.056 28.28ZM180.776 20.84C182.403 18.6533 184.11 17.2933 185.896 16.76C185.363 14.4666 184.63 13.32 183.696 13.32C182.843 13.32 182.056 14.16 181.336 15.84C181.096 16.3733 180.923 16.9466 180.816 17.56C180.71 18.1466 180.656 18.76 180.656 19.4C180.656 19.9066 180.696 20.3866 180.776 20.84ZM182.936 25.2C183.576 24.6133 184.23 23.4666 184.896 21.76C185.59 20 185.936 18.7066 185.936 17.88C185.35 17.96 184.43 18.5066 183.176 19.52C181.95 20.5066 181.19 21.2933 180.896 21.88C181.456 23.9066 182.136 25.0133 182.936 25.2ZM180.176 27.08C180.923 27.08 181.79 26.52 182.776 25.4C181.896 25.2933 181.176 24.24 180.616 22.24C179.736 23.7066 179.296 24.8533 179.296 25.68C179.296 26.6133 179.59 27.08 180.176 27.08Z" fill="#013E53"/>
<path d="M190.629 28.52C190.442 28.52 190.202 28.44 189.909 28.28C189.616 28.0666 189.469 27.8933 189.469 27.76C189.549 27.6 189.616 27.4266 189.669 27.24C189.749 27.0533 189.842 26.8666 189.949 26.68C190.429 25.6666 190.869 24.6533 191.269 23.64C191.669 22.6266 192.002 21.6133 192.269 20.6C192.536 19.64 192.669 18.5066 192.669 17.2C192.616 17.4666 192.442 17.8666 192.149 18.4C191.882 18.9066 191.522 19.5466 191.069 20.32C190.642 21.0666 190.256 21.6933 189.909 22.2C189.589 22.68 189.322 23.0666 189.109 23.36C189.109 23.3866 189.082 23.4 189.029 23.4C188.896 23.4 188.829 23.3466 188.829 23.24C188.829 23.1866 188.842 23.1466 188.869 23.12C189.056 22.8266 189.242 22.52 189.429 22.2C189.642 21.88 189.869 21.5333 190.109 21.16C190.829 19.9866 191.402 18.9333 191.829 18C192.256 17.0666 192.562 16.24 192.749 15.52C192.909 14.8266 193.176 14.48 193.549 14.48C193.976 14.48 194.189 15.0133 194.189 16.08C194.189 18 193.576 20.36 192.349 23.16C193.789 21.3466 194.789 20.1466 195.349 19.56C196.869 17.9333 198.056 17.12 198.909 17.12C199.762 17.12 200.189 17.68 200.189 18.8C200.189 19.5733 199.976 20.2533 199.549 20.84C199.042 21.5866 198.576 21.96 198.149 21.96C198.069 21.96 198.029 21.9066 198.029 21.8C198.029 21.8 198.176 21.4666 198.469 20.8C198.762 20.1333 198.909 19.56 198.909 19.08C198.909 18.36 198.682 18 198.229 18C197.616 18 196.576 18.8133 195.109 20.44C193.936 21.7733 193.082 22.9066 192.549 23.84C192.522 23.92 192.402 24.24 192.189 24.8C191.976 25.36 191.656 26.1866 191.229 27.28C191.176 27.44 191.109 27.6266 191.029 27.84C190.976 28.0266 190.909 28.2266 190.829 28.44C190.776 28.4933 190.709 28.52 190.629 28.52Z" fill="#013E53"/>
<path d="M205.201 14.52C204.668 14.52 204.401 14.24 204.401 13.68C204.401 13.3866 204.561 13.0666 204.881 12.72C205.068 12.5066 205.228 12.3333 205.361 12.2C205.521 12.0666 205.668 11.9733 205.801 11.92C206.761 11.4666 207.334 11.24 207.521 11.24C207.601 11.24 207.641 11.2666 207.641 11.32C207.641 11.4 207.334 11.7866 206.721 12.48C206.694 12.5066 206.641 12.6266 206.561 12.84C206.481 13.0266 206.334 13.32 206.121 13.72C205.881 14.2533 205.574 14.52 205.201 14.52ZM202.801 27.36C201.441 27.36 200.761 26.68 200.761 25.32C200.761 24.3066 201.028 23.0266 201.561 21.48C201.454 21.6666 201.334 21.8533 201.201 22.04C201.094 22.2266 200.974 22.4133 200.841 22.6C200.494 23.1866 200.254 23.48 200.121 23.48C200.068 23.48 200.041 23.44 200.041 23.36C200.041 23.1466 200.121 22.9466 200.281 22.76C200.921 21.88 201.628 20.6133 202.401 18.96C202.481 18.7466 202.588 18.48 202.721 18.16C202.881 17.84 203.068 17.48 203.281 17.08C203.414 16.84 203.748 16.72 204.281 16.72C204.734 16.72 204.961 16.8533 204.961 17.12C204.961 17.3866 204.841 17.7866 204.601 18.32C204.308 18.8533 204.068 19.16 203.881 19.24C202.494 22.0133 201.801 24.0533 201.801 25.36C201.801 26.24 202.094 26.68 202.681 26.68C203.641 26.68 204.694 25.9866 205.841 24.6C207.041 23.2133 207.628 22.52 207.601 22.52C207.654 22.52 207.681 22.56 207.681 22.64C207.681 22.6666 207.654 22.76 207.601 22.92C207.361 23.3466 207.054 23.7866 206.681 24.24C206.334 24.6666 205.934 25.12 205.481 25.6C204.308 26.7733 203.414 27.36 202.801 27.36Z" fill="#013E53"/>
<path d="M214.994 28.56C214.274 28.56 213.714 28.1866 213.314 27.44C212.994 26.8266 212.834 26.12 212.834 25.32C212.834 24.92 212.861 24.48 212.914 24C212.994 23.4933 213.101 22.9466 213.234 22.36C211.554 26.0933 209.821 27.96 208.034 27.96C206.941 27.96 206.394 27.2533 206.394 25.84C206.394 23.5733 207.487 21.2266 209.674 18.8C211.887 16.32 214.087 15.08 216.274 15.08C217.314 15.08 217.834 15.5333 217.834 16.44C217.834 17.56 217.087 18.68 215.594 19.8C214.821 21.72 214.434 23.6933 214.434 25.72C214.434 27.24 214.767 28 215.434 28C216.314 28 217.914 26.32 220.234 22.96C220.394 22.7466 220.514 22.64 220.594 22.64C220.674 22.64 220.714 22.6933 220.714 22.8C220.714 22.9333 220.661 23.0666 220.554 23.2C218.154 26.7733 216.301 28.56 214.994 28.56ZM208.194 26.72C209.874 26.72 211.501 24.8533 213.074 21.12C212.861 21.1733 212.661 21.2266 212.474 21.28C212.314 21.3066 212.167 21.32 212.034 21.32C211.927 21.32 211.874 21.28 211.874 21.2C211.874 21.0666 212.061 20.9333 212.434 20.8C212.567 20.72 212.741 20.6266 212.954 20.52C213.167 20.3866 213.407 20.24 213.674 20.08C213.727 19.6266 214.007 19.04 214.514 18.32C215.021 17.5733 215.501 17.2 215.954 17.2C216.114 17.2 216.194 17.32 216.194 17.56C216.194 17.7466 216.127 18.04 215.994 18.44C216.421 17.8533 216.634 17.28 216.634 16.72C216.634 16.1066 216.354 15.8 215.794 15.8C214.461 15.8 212.714 17.1066 210.554 19.72C208.394 22.36 207.314 24.3866 207.314 25.8C207.314 26.4133 207.607 26.72 208.194 26.72Z" fill="#013E53"/>
<path d="M220.638 29.64C220.318 29.64 220.185 29.5333 220.238 29.32C220.158 29.1066 219.971 28.7733 219.678 28.32C219.358 27.84 219.198 27.5466 219.198 27.44C219.198 27.2266 219.291 27.1066 219.478 27.08C219.745 26.92 220.025 26.72 220.318 26.48C220.611 26.24 220.931 25.9733 221.278 25.68C222.131 23.2266 223.251 20.32 224.638 16.96C226.025 13.5733 227.691 9.74665 229.638 5.47998C229.771 5.21331 229.905 4.89331 230.038 4.51998C230.198 4.11998 230.411 3.67998 230.678 3.19998C230.998 2.58665 231.705 2.27998 232.798 2.27998C233.198 2.27998 233.398 2.37331 233.398 2.55998C233.398 2.61331 233.371 2.66665 233.318 2.71998C233.051 3.19998 232.731 3.79998 232.358 4.51998C231.985 5.23998 231.531 6.09331 230.998 7.07998C229.185 10.5466 227.625 13.6666 226.318 16.44C225.038 19.2133 224.025 21.6533 223.278 23.76C224.771 22.2666 225.998 20.9333 226.958 19.76C227.945 18.56 228.691 17.5066 229.198 16.6C229.225 16.5466 229.265 16.4666 229.318 16.36C229.371 16.2533 229.425 16.1466 229.478 16.04C229.638 15.7733 229.905 15.64 230.278 15.64C230.598 15.64 230.758 15.7466 230.758 15.96C230.758 16.0933 230.745 16.28 230.718 16.52C230.691 16.76 230.651 17.0533 230.598 17.4C230.545 17.7466 230.491 18.0533 230.438 18.32C230.411 18.5866 230.398 18.8133 230.398 19C230.398 20.6266 230.638 22.2666 231.118 23.92C231.811 26.2133 232.758 27.36 233.958 27.36C234.171 27.36 234.438 27.2933 234.758 27.16C235.078 27.0266 235.265 26.96 235.318 26.96C235.531 26.96 235.638 27.0666 235.638 27.28C235.638 27.5466 235.371 27.7866 234.838 28C234.278 28.2133 233.851 28.32 233.558 28.32C232.225 28.32 231.011 27.24 229.918 25.08C228.985 23.1333 228.518 21.32 228.518 19.64C228.518 19.5066 228.518 19.3866 228.518 19.28C228.518 19.1733 228.531 19.0666 228.558 18.96C228.078 19.6533 227.358 20.5066 226.398 21.52C225.438 22.5333 224.251 23.7066 222.838 25.04C222.705 25.4933 222.585 25.9333 222.478 26.36C222.371 26.7866 222.265 27.1866 222.158 27.56C222.131 27.6666 222.105 27.8133 222.078 28C222.051 28.16 222.011 28.3466 221.958 28.56C221.771 29.28 221.331 29.64 220.638 29.64ZM220.438 28.4C220.491 28.1866 220.545 27.9466 220.598 27.68C220.678 27.4133 220.771 27.1466 220.878 26.88C220.718 27.0133 220.571 27.1333 220.438 27.24C220.305 27.3466 220.171 27.4533 220.038 27.56C220.171 27.7466 220.305 28.0266 220.438 28.4Z" fill="#013E53"/>
</svg>
